<?xml version="1.0" encoding="utf-8"?>
<!-- Generator: Adobe Illustrator 17.0.0, SVG Export Plug-In . SVG Version: 6.00 Build 0)  -->
<!DOCTYPE svg PUBLIC "-//W3C//DTD SVG 1.1//EN" "http://www.w3.org/Graphics/SVG/1.1/DTD/svg11.dtd">
<svg version="1.1" id="mechanism" xmlns="http://www.w3.org/2000/svg" xmlns:xlink="http://www.w3.org/1999/xlink" x="0px" y="0px"
	 width="408.629px" height="305.747px" viewBox="0 0 408.629 305.747" enable-background="new 0 0 408.629 305.747"
	 xml:space="preserve">
	 <style type="text/css">@import url(https://fonts.googleapis.com/css?family=Lato:400,300,700,700italic,400italic,300italic);</style>
<polygon opacity="0.9" fill="#DCDBDB" points="124.525,236.779 223.52,286.276 322.514,236.779 223.52,187.282 "/>
<g>
	<polygon fill="none" stroke="#666364" stroke-miterlimit="10" points="174.022,236.779 149.273,249.153 124.525,236.779 
		149.273,224.405 	"/>
	<polygon fill="none" stroke="#666364" stroke-miterlimit="10" points="198.771,224.405 174.022,236.779 149.273,224.405 
		174.022,212.03 	"/>
	<polygon fill="none" stroke="#666364" stroke-miterlimit="10" points="223.52,212.03 198.771,224.405 174.022,212.03 
		198.771,199.656 	"/>
	<polygon fill="none" stroke="#666364" stroke-miterlimit="10" points="248.268,199.656 223.52,212.03 198.771,199.656 
		223.52,187.282 	"/>
	<polygon fill="none" stroke="#666364" stroke-miterlimit="10" points="198.771,249.153 174.022,261.528 149.273,249.153 
		174.022,236.779 	"/>
	<polygon fill="none" stroke="#666364" stroke-miterlimit="10" points="223.52,236.779 198.771,249.153 174.022,236.779 
		198.771,224.405 	"/>
	<polygon fill="none" stroke="#666364" stroke-miterlimit="10" points="248.268,224.405 223.52,236.779 198.771,224.405 
		223.52,212.03 	"/>
	<polygon fill="none" stroke="#666364" stroke-miterlimit="10" points="273.017,212.03 248.268,224.405 223.52,212.03 
		248.268,199.656 	"/>
	<polygon fill="none" stroke="#666364" stroke-miterlimit="10" points="223.52,261.528 198.771,273.902 174.022,261.528 
		198.771,249.153 	"/>
	<polygon fill="none" stroke="#666364" stroke-miterlimit="10" points="248.268,249.153 223.52,261.528 198.771,249.153 
		223.52,236.779 	"/>
	<polygon fill="none" stroke="#666364" stroke-miterlimit="10" points="273.017,236.779 248.268,249.153 223.52,236.779 
		248.268,224.405 	"/>
	<polygon fill="none" stroke="#666364" stroke-miterlimit="10" points="297.766,224.405 273.017,236.779 248.268,224.405 
		273.017,212.03 	"/>
	<polygon fill="none" stroke="#666364" stroke-miterlimit="10" points="248.268,273.902 223.52,286.276 198.771,273.902 
		223.52,261.528 	"/>
	<polygon fill="none" stroke="#666364" stroke-miterlimit="10" points="273.017,261.528 248.268,273.902 223.52,261.528 
		248.268,249.153 	"/>
	<polygon fill="none" stroke="#666364" stroke-miterlimit="10" points="297.766,249.153 273.017,261.528 248.268,249.153 
		273.017,236.779 	"/>
	<polygon fill="none" stroke="#666364" stroke-miterlimit="10" points="322.514,236.779 297.766,249.153 273.017,236.779 
		297.766,224.405 	"/>
</g>
<polygon opacity="0.9" fill="#EFEFEF" points="124.525,174.282 223.52,223.779 322.514,174.282 223.52,124.784 "/>
<g>
	<polygon fill="none" stroke="#37415E" stroke-miterlimit="10" points="174.022,174.282 149.273,186.656 124.525,174.282 
		149.273,161.907 	"/>
	<polygon fill="none" stroke="#37415E" stroke-miterlimit="10" points="198.771,161.907 174.022,174.282 149.273,161.907 
		174.022,149.533 	"/>
	<polygon fill="none" stroke="#37415E" stroke-miterlimit="10" points="223.52,149.533 198.771,161.907 174.022,149.533 
		198.771,137.158 	"/>
	<polygon fill="none" stroke="#37415E" stroke-miterlimit="10" points="248.268,137.158 223.52,149.533 198.771,137.158 
		223.52,124.784 	"/>
	<polygon fill="none" stroke="#37415E" stroke-miterlimit="10" points="198.771,186.656 174.022,199.03 149.273,186.656 
		174.022,174.282 	"/>
	<polygon fill="none" stroke="#37415E" stroke-miterlimit="10" points="223.52,174.282 198.771,186.656 174.022,174.282 
		198.771,161.907 	"/>
	<polygon fill="none" stroke="#37415E" stroke-miterlimit="10" points="248.268,161.907 223.52,174.282 198.771,161.907 
		223.52,149.533 	"/>
	<polygon fill="none" stroke="#37415E" stroke-miterlimit="10" points="273.017,149.533 248.268,161.907 223.52,149.533 
		248.268,137.158 	"/>
	<polygon fill="none" stroke="#37415E" stroke-miterlimit="10" points="223.52,199.03 198.771,211.405 174.022,199.03 
		198.771,186.656 	"/>
	<polygon fill="none" stroke="#37415E" stroke-miterlimit="10" points="248.268,186.656 223.52,199.03 198.771,186.656 
		223.52,174.282 	"/>
	<polygon fill="none" stroke="#37415E" stroke-miterlimit="10" points="273.017,174.282 248.268,186.656 223.52,174.282 
		248.268,161.907 	"/>
	<polygon fill="none" stroke="#37415E" stroke-miterlimit="10" points="297.766,161.907 273.017,174.282 248.268,161.907 
		273.017,149.533 	"/>
	<polygon fill="none" stroke="#37415E" stroke-miterlimit="10" points="248.268,211.405 223.52,223.779 198.771,211.405 
		223.52,199.03 	"/>
	<polygon fill="none" stroke="#37415E" stroke-miterlimit="10" points="273.017,199.03 248.268,211.405 223.52,199.03 
		248.268,186.656 	"/>
	<polygon fill="none" stroke="#37415E" stroke-miterlimit="10" points="297.766,186.656 273.017,199.03 248.268,186.656 
		273.017,174.282 	"/>
	<polygon fill="none" stroke="#37415E" stroke-miterlimit="10" points="322.514,174.282 297.766,186.656 273.017,174.282 
		297.766,161.907 	"/>
</g>
<polygon opacity="0.9" fill="#D3E5EE" points="124.525,111.784 223.52,161.282 322.514,111.784 223.52,62.287 "/>
<g>
	<polygon fill="none" stroke="#5F90B7" stroke-miterlimit="10" points="174.022,111.784 149.273,124.158 124.525,111.784 
		149.273,99.41 	"/>
	<polygon fill="none" stroke="#5F90B7" stroke-miterlimit="10" points="198.771,99.41 174.022,111.784 149.273,99.41 
		174.022,87.035 	"/>
	<polygon fill="none" stroke="#5F90B7" stroke-miterlimit="10" points="223.52,87.035 198.771,99.41 174.022,87.035 198.771,74.661 
			"/>
	<polygon fill="none" stroke="#5F90B7" stroke-miterlimit="10" points="248.268,74.661 223.52,87.035 198.771,74.661 223.52,62.287 
			"/>
	<polygon fill="none" stroke="#5F90B7" stroke-miterlimit="10" points="198.771,124.158 174.022,136.533 149.273,124.158 
		174.022,111.784 	"/>
	<polygon fill="none" stroke="#5F90B7" stroke-miterlimit="10" points="223.52,111.784 198.771,124.158 174.022,111.784 
		198.771,99.41 	"/>
	<polygon fill="none" stroke="#5F90B7" stroke-miterlimit="10" points="248.268,99.41 223.52,111.784 198.771,99.41 223.52,87.035 	
		"/>
	<polygon fill="none" stroke="#5F90B7" stroke-miterlimit="10" points="273.017,87.035 248.268,99.41 223.52,87.035 248.268,74.661 
			"/>
	<polygon fill="none" stroke="#5F90B7" stroke-miterlimit="10" points="223.52,136.533 198.771,148.907 174.022,136.533 
		198.771,124.158 	"/>
	<polygon fill="none" stroke="#5F90B7" stroke-miterlimit="10" points="248.268,124.158 223.52,136.533 198.771,124.158 
		223.52,111.784 	"/>
	<polygon fill="none" stroke="#5F90B7" stroke-miterlimit="10" points="273.017,111.784 248.268,124.158 223.52,111.784 
		248.268,99.41 	"/>
	<polygon fill="none" stroke="#5F90B7" stroke-miterlimit="10" points="297.766,99.41 273.017,111.784 248.268,99.41 
		273.017,87.035 	"/>
	<polygon fill="none" stroke="#5F90B7" stroke-miterlimit="10" points="248.268,148.907 223.52,161.282 198.771,148.907 
		223.52,136.533 	"/>
	<polygon fill="none" stroke="#5F90B7" stroke-miterlimit="10" points="273.017,136.533 248.268,148.907 223.52,136.533 
		248.268,124.158 	"/>
	<polygon fill="none" stroke="#5F90B7" stroke-miterlimit="10" points="297.766,124.158 273.017,136.533 248.268,124.158 
		273.017,111.784 	"/>
	<polygon fill="none" stroke="#5F90B7" stroke-miterlimit="10" points="322.514,111.784 297.766,124.158 273.017,111.784 
		297.766,99.41 	"/>
</g>
<g>
	<path fill="#5B9B43" d="M229.12,50.539c0,1.702-1.393,3.095-3.095,3.095h-67.912c-1.702,0-3.095-1.393-3.095-3.095V40.463
		c0-1.702,1.393-3.095,3.095-3.095h67.912c1.702,0,3.095,1.393,3.095,3.095V50.539z"/>
</g>
<text transform="matrix(1 0 0 1 162.1917 49.332)" fill="#FFFFFF" font-family="'Lato'" font-size="11.3386">evaporation</text>
<g>
	<path fill="#E97624" d="M141.343,189.071c0,1.638-1.34,2.978-2.978,2.978H19.467c-1.638,0-2.978-1.34-2.978-2.978v-10.31
		c0-1.638,1.34-2.978,2.978-2.978h118.898c1.638,0,2.978,1.34,2.978,2.978V189.071z"/>
</g>
<text transform="matrix(1 0 0 1 22.5697 187.7468)" fill="#FFFFFF" font-family="'Lato'" font-size="11.3386">wet pigment advection</text>
<g>
	<path fill="#E97624" d="M152.964,128.074c0,1.702-1.393,3.095-3.095,3.095H62.04c-1.702,0-3.095-1.393-3.095-3.095v-10.076
		c0-1.702,1.393-3.095,3.095-3.095h87.829c1.702,0,3.095,1.393,3.095,3.095V128.074z"/>
</g>
<text transform="matrix(1 0 0 1 65.9126 126.8668)" fill="#FFFFFF" font-family="'Lato'" font-size="11.3386">water advection</text>
<text transform="matrix(1 0 0 1 278.6082 142.6113)" fill="#5F90B7" font-family="'Lato'" font-weight="700" font-size="8.5039">WATER TEXTURE (SCALAR)</text>
<text transform="matrix(1 0 0 1 278.6082 206.5304)" fill="#37415E" font-family="'Lato'" font-weight="700" font-size="8.5039">WET TEXTURE (RGBA)</text>
<text transform="matrix(1 0 0 1 278.6082 269.992)" fill="#666364" font-family="'Lato'" font-weight="700" font-size="8.5039">DRY TEXTURE (RGBA)</text>
<g>
	<path fill="#11569F" d="M142.724,239.945c0,1.702-1.393,3.095-3.095,3.095h-39.342c-1.702,0-3.095-1.393-3.095-3.095v-10.076
		c0-1.702,1.393-3.095,3.095-3.095h39.342c1.702,0,3.095,1.393,3.095,3.095V239.945z"/>
</g>
<g>
	<text transform="matrix(1 0 0 1 104.1016 238.7374)" fill="#FFFFFF" font-family="'Lato'" font-size="11.3386">drying</text>
</g>
<g>
	<path fill="#CA2070" d="M386.091,179.005c0,1.702-1.393,3.095-3.095,3.095H282.828c-1.702,0-3.095-1.393-3.095-3.095v-10.076
		c0-1.702,1.393-3.095,3.095-3.095h100.169c1.702,0,3.095,1.393,3.095,3.095V179.005z"/>
</g>
<g>
	<text transform="matrix(1 0 0 1 289.6396 177.7977)" fill="#FFFFFF" font-family="'Lato'" font-size="11.3386">pigment diffusion</text>
</g>
<g>
	<g>
		
			<line fill="none" stroke="#E97624" stroke-width="1.7008" stroke-linecap="round" stroke-miterlimit="10" x1="149.894" y1="174.282" x2="170.052" y2="184.361"/>
		<g>
			<path fill="#E97624" d="M174.643,186.656c-2.561-0.279-5.924-0.251-8.31,0.367l3.117-2.963l0.5-4.271
				C170.887,182.068,172.883,184.775,174.643,186.656z"/>
		</g>
	</g>
</g>
<g>
	<g>
		
			<line fill="none" stroke="#E97624" stroke-width="1.7008" stroke-linecap="round" stroke-miterlimit="10" x1="149.894" y1="111.784" x2="170.052" y2="121.863"/>
		<g>
			<path fill="#E97624" d="M174.643,124.158c-2.561-0.279-5.924-0.251-8.31,0.367l3.117-2.963l0.5-4.271
				C170.887,119.57,172.883,122.278,174.643,124.158z"/>
		</g>
	</g>
</g>
<g>
	<g>
		
			<line fill="none" stroke="#11569F" stroke-width="1.7008" stroke-linecap="round" stroke-miterlimit="10" x1="149.894" y1="174.282" x2="149.894" y2="231.647"/>
		<g>
			<path fill="#11569F" d="M149.894,236.779c-0.896-2.415-2.425-5.411-4.044-7.269l4.044,1.463l4.044-1.463
				C152.318,231.368,150.789,234.364,149.894,236.779z"/>
		</g>
	</g>
</g>
<g>
	<g>
		
			<line fill="none" stroke="#5B9B43" stroke-width="1.7008" stroke-linecap="round" stroke-miterlimit="10" x1="149.894" y1="111.784" x2="149.894" y2="34.419"/>
		<g>
			<path fill="#5B9B43" d="M149.894,29.287c0.896,2.415,2.425,5.411,4.044,7.269l-4.044-1.463l-4.044,1.463
				C147.47,34.698,148.999,31.702,149.894,29.287z"/>
		</g>
	</g>
</g>
<g>
	<g>
		
			<line fill="none" stroke="#CA2070" stroke-width="1.7008" stroke-linecap="round" stroke-miterlimit="10" x1="248.268" y1="174.282" x2="227.425" y2="164.151"/>
		<g>
			<path fill="#CA2070" d="M222.809,161.907c2.564,0.25,5.927,0.185,8.305-0.46l-3.084,2.998l-0.452,4.276
				C226.617,166.453,224.59,163.768,222.809,161.907z"/>
		</g>
	</g>
</g>
<g>
	<g>
		
			<line fill="none" stroke="#CA2070" stroke-width="1.7008" stroke-linecap="round" stroke-miterlimit="10" x1="248.268" y1="174.282" x2="228.11" y2="184.361"/>
		<g>
			<path fill="#CA2070" d="M223.52,186.656c1.759-1.881,3.756-4.589,4.693-6.868l0.5,4.272l3.117,2.962
				C229.444,186.404,226.08,186.377,223.52,186.656z"/>
		</g>
	</g>
</g>
<g>
	<g>
		
			<line fill="none" stroke="#CA2070" stroke-width="1.7008" stroke-linecap="round" stroke-miterlimit="10" x1="248.268" y1="174.282" x2="268.427" y2="184.361"/>
		<g>
			<path fill="#CA2070" d="M273.017,186.656c-2.561-0.279-5.924-0.251-8.31,0.367l3.117-2.963l0.5-4.271
				C269.261,182.068,271.257,184.775,273.017,186.656z"/>
		</g>
	</g>
</g>
<g>
	<g>
		
			<line fill="none" stroke="#CA2070" stroke-width="1.7008" stroke-linecap="round" stroke-miterlimit="10" x1="248.268" y1="174.282" x2="268.427" y2="164.202"/>
		<g>
			<path fill="#CA2070" d="M273.017,161.907c-1.759,1.881-3.756,4.589-4.693,6.868l-0.5-4.272l-3.117-2.962
				C267.093,162.159,270.457,162.186,273.017,161.907z"/>
		</g>
	</g>
</g>
</svg>
